<?xml version="1.0" standalone="no"?><!DOCTYPE svg PUBLIC "-//W3C//DTD SVG 1.1//EN" "http://www.w3.org/Graphics/SVG/1.1/DTD/svg11.dtd"><svg class="icon" width="200px" height="200.00px" viewBox="0 0 1024 1024" version="1.1" xmlns="http://www.w3.org/2000/svg"><path d="M504 912a24.64 24.64 0 0 1-17.12-7.04l-318.24-321.6a248 248 0 0 1 333.92-365.92 248.48 248.48 0 0 1 333.12 16 248.64 248.64 0 0 1 0 349.92L521.12 904.8a23.52 23.52 0 0 1-17.12 7.2z m-159.2-703.04a199.84 199.84 0 0 0-141.92 340.64l301.12 304 298.08-304a200.32 200.32 0 0 0 0-282.4 200.32 200.32 0 0 0-282.24 0 24 24 0 0 1-33.76 0 199.52 199.52 0 0 0-141.28-58.24z" /></svg>