<?xml version="1.0" standalone="no"?><!DOCTYPE svg PUBLIC "-//W3C//DTD SVG 1.1//EN" "http://www.w3.org/Graphics/SVG/1.1/DTD/svg11.dtd"><svg class="icon" width="200px" height="200.00px" viewBox="0 0 1024 1024" version="1.1" xmlns="http://www.w3.org/2000/svg"><path  d="M1024 626.710383l0-229.420765-137.372678 0c-7.83388-25.180328-18.185792-48.681967-30.775956-71.624044l94.006557-92.327869-158.636066-159.755191-92.60765 95.125683c-22.942077-12.590164-46.443716-22.662295-71.624044-30.496175L626.990164 0l-229.420765 0 0 134.854645c-27.978142 7.83388-52.598907 18.185792-77.779235 31.615301L228.021858 75.820765 65.189071 233.057923l93.446995 92.048087c-12.869945 23.221858-22.942077 47.003279-31.055738 72.183607L0 397.289617l0 229.420765 123.943169 0c7.554098 27.978142 18.185792 52.878689 31.615301 78.059016l-90.928962 92.048087 163.112568 161.713661 91.208743-89.809836c25.180328 13.429508 50.360656 24.061202 78.338798 31.895082L397.289617 1024l229.420765 0 0-126.461202c25.180328-7.83388 48.961749-18.185792 72.183607-30.775956l92.60765 94.006557 158.915847-164.511475L858.928962 704.489617c13.429508-25.180328 23.781421-49.801093 31.335519-77.779235L1024 626.710383zM870.679781 796.817486l-80.017486 82.535519-83.654645-84.77377-19.304918 12.030601c-30.216393 19.025137-63.510383 33.014208-97.923497 41.687432l-22.102732 5.315847L567.676503 968.043716l-111.912568 0 0-112.19235-22.662295-5.036066c-36.091803-8.113661-71.064481-22.102732-103.239344-41.687432l-19.025137-11.471038-82.815301 81.136612-83.095082-82.535519 81.696175-83.095082-11.471038-19.025137c-19.584699-32.454645-33.57377-67.427322-41.40765-103.519126l-4.756284-22.662295L55.956284 567.956284l0-111.912568 115.269945 0 5.315847-21.822951c8.673224-34.692896 22.942077-67.707104 41.687432-97.643716l12.310383-19.304918-83.934426-83.374863 81.136612-78.338798L311.396721 237.814208l19.025137-11.471038c32.174863-19.584699 67.147541-33.57377 102.959563-41.40765l22.662295-5.036066L456.043716 55.956284l111.912568 0 0 125.901639 22.102732 5.315847c34.413115 8.673224 67.427322 22.662295 97.363934 41.40765l19.584699 12.030601 84.493989-85.892896 77.779235 78.338798-85.333333 83.934426 12.310383 19.304918c18.745355 29.936612 32.734426 63.230601 41.687432 97.643716l5.315847 21.822951L968.043716 455.763934l0 111.912568-122.824044 0-4.756284 22.942077c-7.83388 35.812022-21.822951 70.784699-41.127869 102.959563l-11.471038 19.025137L870.679781 796.817486zM506.963934 347.208743c-94.006557 0-170.666667 76.660109-170.666667 170.666667s76.660109 170.666667 170.666667 170.666667 170.666667-76.660109 170.666667-170.666667S601.250273 347.208743 506.963934 347.208743zM506.963934 631.746448c-62.671038 0-113.871038-50.920219-113.871038-113.871038s50.920219-113.871038 113.871038-113.871038 113.871038 50.920219 113.871038 113.871038S569.914754 631.746448 506.963934 631.746448z" /></svg>