<?xml version="1.0" standalone="no"?><!DOCTYPE svg PUBLIC "-//W3C//DTD SVG 1.1//EN" "http://www.w3.org/Graphics/SVG/1.1/DTD/svg11.dtd"><svg class="icon" width="200px" height="200.00px" viewBox="0 0 1024 1024" version="1.1" xmlns="http://www.w3.org/2000/svg"><path d="M959.072 160.73H64.763c-25.422 0-46.031 20.609-46.031 46.031v610.728c0 25.422 20.609 46.031 46.031 46.031h894.31c25.422 0 46.031-20.609 46.031-46.031V206.761c-0.001-25.422-20.61-46.031-46.032-46.031z m-123.228 49.539L511.917 534.196 187.991 210.269h647.853z m111.403 564.17c0 21.838-18.191 39.541-40.631 39.541H117.218c-22.44 0-40.631-17.703-40.631-39.541V249.81c0-21.838 18.191-39.541 40.631-39.541h0.061l359.282 359.282 35.355 35.355 35.355-35.355 359.282-359.282h0.061c22.44 0 40.631 17.703 40.631 39.541v524.629z" /></svg>